# xmcd
#
# Track frame offsets:
#	150
#	13324
#	25380
#	36231
#	47346
#	58550
#	68892
#	80539
#	91014
#	103451
#	116406
#	126759
#	138171
#	147223
#	157731
#	169428
#	178915
#	190110
#	203075
#	213496
#	227019
#	237062
#	248395
#	257777
#
# Disc length: 3609 seconds
#
# Revision: 0
# Processed by: cddbd v1.5.2PL0 Copyright (c) Steve Scherf et al.
# Submitted via: audiograbber 1.83.01
#
DISCID=480e1718
DTITLE=mac wiseman - 'Tis sweet to be remembered  (1957) Beside the still water
DTITLE=s (1959)
DYEAR=2016
DGENRE=country
TTITLE0='Tis sweet to be remembered 
TTITLE1=I'll still write your name in the sand 
TTITLE2=Shackles and chains 
TTITLE3=Remembering 
TTITLE4=I haven't got the right to love you 
TTITLE5=I saw your face in the moon 
TTITLE6=Four walls around me 
TTITLE7=Rainbow in the valley 
TTITLE8=Love letters in the sand 
TTITLE9=I wonder how the old folks are at home 
TTITLE10=Don't let your sweet love die 
TTITLE11=Goin' like wildfire 
TTITLE12=Beside the still waters 
TTITLE13=How great thou art 
TTITLE14=Just a closer walk with thee 
TTITLE15=Standing somewhere in the shadows 
TTITLE16=When God dips his love in my heart 
TTITLE17=Hold fast to the right 
TTITLE18=Did you stop to pray this morning 
TTITLE19=Whispering hope 
TTITLE20=Will there be any stars in my crown 
TTITLE21=Does Jesus care 
TTITLE22=It is no secret 
TTITLE23=Each ring of the hammer 
EXTD=
EXTT0=
EXTT1=
EXTT2=
EXTT3=
EXTT4=
EXTT5=
EXTT6=
EXTT7=
EXTT8=
EXTT9=
EXTT10=
EXTT11=
EXTT12=
EXTT13=
EXTT14=
EXTT15=
EXTT16=
EXTT17=
EXTT18=
EXTT19=
EXTT20=
EXTT21=
EXTT22=
EXTT23=
PLAYORDER=
